<?xml version="1.0" encoding="UTF-8"?>
<svg id="Layer_2" data-name="Layer 2" xmlns="http://www.w3.org/2000/svg" viewBox="0 0 788.67 329.33">
  <defs>
    <style>
      .cls-1 {
        fill: blue;
      }

      .cls-2, .cls-3 {
        fill: #231f20;
      }

      .cls-3 {
        font-family: CenturyGothic-Bold, 'Century Gothic';
        font-size: 32.41px;
        font-weight: 700;
      }
    </style>
  </defs>
  <path class="cls-1" d="M725.61,120.13h-30.75c-.36,0-.53.44-.25.68l8.34,7.11c.14.12.18.33.08.49l-8.27,14.01c-.21.36.22.75.56.5l30.52-22.09c.3-.22.15-.69-.23-.69Z"/>
  <polygon class="cls-2" points="309.3 145.66 373.99 145.66 354.41 174.9 309.3 174.9 309.3 229.11 280.07 229.11 280.07 85.56 389.7 85.56 370.13 114.79 309.3 114.79 309.3 145.66"/>
  <path class="cls-2" d="M402.38,229.11l-2.44-10.23c-1.35-5.66-2.03-11.49-2.03-17.31v-116h29.24v116.48c0,5.51.7,11.01,2.08,16.34l2.78,10.73h-29.63Z"/>
  <polygon class="cls-2" points="695.62 229.35 695.62 156.77 724.85 134.55 724.85 229.35 695.62 229.35"/>
  <polygon class="cls-2" points="684.13 229.35 648.42 229.35 625.99 198.91 603.57 229.36 567.84 229.36 608.13 174.67 567.85 119.98 603.56 119.98 684.13 229.35"/>
  <polygon class="cls-2" points="632.3 141.02 648.41 119.98 684.13 119.98 650.16 165.26 632.3 141.02"/>
  <path class="cls-2" d="M575.69,199.34l-23.74,29.39h-68.79c-23.68,0-42.94-19.4-42.94-43.25v-22.11c0-23.85,19.27-43.25,42.94-43.25h82.68l-48.05,65.13h-35.72l26.37-35.74h-27.21c-6.49,0-11.77,5.34-11.77,11.9v27.33c0,5.84,4.7,10.6,10.48,10.6h95.76Z"/>
  <text class="cls-3" transform="translate(651.61 267.25)"><tspan x="0" y="0">CRM</tspan></text>
  <path class="cls-1" d="M208.08,155.82H63.82c-1.69,0-2.47,2.08-1.19,3.17l39.13,33.37c.67.57.83,1.53.38,2.28l-38.82,65.73c-1,1.69,1.05,3.52,2.65,2.37l143.17-103.65c1.42-1.03.69-3.26-1.07-3.26Z"/>
  <path class="cls-2" d="M64.66,141.52L241.66,59.91c2.14-.98,1.6-5.2-.65-5.2H64c-1.11,0-2,1.2-2,2.67v81.62c0,1.84,1.36,3.12,2.66,2.53Z"/>
</svg>